<?xml version="1.0" encoding="UTF-8"?>
<svg version="1.1" xmlns="http://www.w3.org/2000/svg" width="836" height="281">
<path d="M0 0 C4.06470194 1.24359994 7.55495387 2.73129983 11.203125 4.90625 C12.17499756 5.48076904 13.14687012 6.05528809 14.14819336 6.6472168 C15.68358765 7.56434448 15.68358765 7.56434448 17.25 8.5 C19.40162275 9.76815118 21.55397354 11.03506787 23.70703125 12.30078125 C24.77002441 12.92678223 25.83301758 13.5527832 26.92822266 14.19775391 C31.2447646 16.7303173 35.5784687 19.22884845 39.9375 21.6875 C40.62682617 22.08453125 41.31615234 22.4815625 42.02636719 22.890625 C48.95175372 26.77073419 55.77871849 29.42797001 63.8125 29.4375 C64.89144531 29.45683594 65.97039062 29.47617188 67.08203125 29.49609375 C77.3214436 28.19957793 85.85826214 23.7424026 94.5625 18.4375 C96.65094287 17.19384449 98.73948596 15.95035727 100.828125 14.70703125 C102.3740332 13.77818115 102.3740332 13.77818115 103.95117188 12.83056641 C108.55482913 10.06645509 113.17869694 7.33818686 117.8125 4.625 C118.60019775 4.15505615 119.38789551 3.6851123 120.19946289 3.20092773 C121.28602173 2.56392944 121.28602173 2.56392944 122.39453125 1.9140625 C123.02206299 1.5423291 123.64959473 1.1705957 124.29614258 0.78759766 C126 0 126 0 129 0 C129.84384675 1.41042956 130.67469496 2.82864132 131.5 4.25 C131.9640625 5.03890625 132.428125 5.8278125 132.90625 6.640625 C134 9 134 9 134 13 C133.31711914 13.39155273 132.63423828 13.78310547 131.93066406 14.18652344 C120.19270601 20.92257775 108.45744978 27.66658301 96.8125 34.5625 C96.0194043 35.0255957 95.22630859 35.48869141 94.40917969 35.96582031 C87.88022975 39.85954078 81.68752668 44.02312295 77.75 50.6875 C77.29109375 51.43386719 76.8321875 52.18023437 76.359375 52.94921875 C72.4007702 61.83332894 71.54198969 70.47075071 71.48828125 80.10546875 C71.46135445 81.91329582 71.46135445 81.91329582 71.43388367 83.75764465 C71.38015448 87.56756195 71.34600477 91.37735668 71.3125 95.1875 C71.27929398 97.78712629 71.24480133 100.38673649 71.20898438 102.98632812 C71.1244494 109.32412977 71.05746038 115.66189742 71 122 C66.38 122 61.76 122 57 122 C56.67 106.16 56.34 90.32 56 74 C51.09219474 82.62783403 51.09219474 82.62783403 46.18945312 91.25854492 C41.61831071 99.27617432 36.88995873 107.17228175 32 115 C28.7925985 114.26864196 26.5184546 113.23699549 23.75 111.4375 C23.04359375 110.98246094 22.3371875 110.52742188 21.609375 110.05859375 C21.07828125 109.70925781 20.5471875 109.35992187 20 109 C20.59593272 104.6417689 22.19276486 101.52927341 24.38671875 97.73828125 C24.72621048 97.14758347 25.06570221 96.55688568 25.41548157 95.94828796 C26.49962491 94.06583259 27.59345468 92.18921409 28.6875 90.3125 C29.40361935 89.07132369 30.11911979 87.82979006 30.83398438 86.58789062 C34.81742553 79.68218359 38.86951543 72.81890716 43 66 C42.27941406 66.41507812 41.55882812 66.83015625 40.81640625 67.2578125 C37.72678989 69.03072561 34.63274785 70.79550551 31.53613281 72.55615234 C29.6775183 73.61428155 27.8202922 74.67485054 25.96386719 75.73681641 C22.62571893 77.64411699 19.28204595 79.54144412 15.9375 81.4375 C14.8431665 82.06479004 13.74883301 82.69208008 12.62133789 83.33837891 C11.57969482 83.9266748 10.53805176 84.5149707 9.46484375 85.12109375 C8.06673462 85.91664673 8.06673462 85.91664673 6.64038086 86.72827148 C4.05571583 87.9731647 1.82605542 88.58093444 -1 89 C-1.84384675 87.58957044 -2.67469496 86.17135868 -3.5 84.75 C-3.9640625 83.96109375 -4.428125 83.1721875 -4.90625 82.359375 C-6 80 -6 80 -6 76 C-5.32122803 75.62302979 -4.64245605 75.24605957 -3.94311523 74.85766602 C-0.77313316 73.09519355 2.39467969 71.32885482 5.5625 69.5625 C6.62919922 68.97017578 7.69589844 68.37785156 8.79492188 67.76757812 C17.30414624 63.01765288 25.66731869 58.05175594 34 53 C33.41340103 52.98969254 32.82680206 52.97938507 32.22242737 52.96876526 C26.1396213 52.86092806 20.05697026 52.74631244 13.97436523 52.62768555 C11.70161164 52.58426335 9.42882387 52.54259384 7.15600586 52.50268555 C3.89686768 52.44515881 0.63790269 52.38141448 -2.62109375 52.31640625 C-3.64400009 52.29969376 -4.66690643 52.28298126 -5.72080994 52.26576233 C-7.13215965 52.2358445 -7.13215965 52.2358445 -8.57202148 52.20532227 C-9.40475082 52.18977798 -10.23748016 52.1742337 -11.09544373 52.15821838 C-13 52 -13 52 -14 51 C-14.0989294 48.83519203 -14.129711 46.66706215 -14.125 44.5 C-14.12757812 43.3140625 -14.13015625 42.128125 -14.1328125 40.90625 C-14 38 -14 38 -13 37 C-11.52749355 36.87767356 -10.04934289 36.8222544 -8.57202148 36.79467773 C-7.63112167 36.77473251 -6.69022186 36.75478729 -5.72080994 36.73423767 C-4.69790359 36.71752518 -3.67499725 36.70081268 -2.62109375 36.68359375 C-1.058395 36.6524221 -1.058395 36.6524221 0.53587341 36.62062073 C3.87801247 36.55500943 7.22023285 36.49618669 10.5625 36.4375 C12.82227418 36.39432578 15.08204001 36.35071186 17.34179688 36.30664062 C22.89444421 36.19931633 28.44717321 36.09757188 34 36 C32.82195801 35.32795532 32.82195801 35.32795532 31.62011719 34.64233398 C28.64524653 32.94487436 25.67067451 31.24689358 22.69628906 29.54858398 C21.42036264 28.82019197 20.14432491 28.09199489 18.86816406 27.36401367 C10.55251475 22.62016491 2.25957546 17.84106086 -6 13 C-5.13799841 7.19100935 -3.57465607 4.5828924 0 0 Z " fill="#000000" transform="translate(123,70)"/>
<path d="M0 0 C2.625 2.3125 2.625 2.3125 4 4 C4.63615234 3.40251953 4.63615234 3.40251953 5.28515625 2.79296875 C13.08331568 -4.25108296 18.82140499 -5.5927678 29.33203125 -5.34375 C37.02488446 -4.62280103 41.90214419 -1.87548476 46.80859375 4.0234375 C50.52469708 10.18851385 50.26437316 16.34114985 50.1953125 23.3046875 C50.1924826 24.38380402 50.18965271 25.46292053 50.18673706 26.57473755 C50.1755766 30.00827299 50.1504793 33.44154391 50.125 36.875 C50.11496487 39.20832956 50.10583995 41.54166322 50.09765625 43.875 C50.07565075 49.58343466 50.04114908 55.29167254 50 61 C45.05 61 40.1 61 35 61 C34.98541748 59.75911621 34.97083496 58.51823242 34.95581055 57.23974609 C34.89769277 52.62129379 34.82046053 48.00332216 34.73754883 43.38525391 C34.70436287 41.38923971 34.67631132 39.39313311 34.65356445 37.39697266 C34.61990207 34.5220616 34.56758023 31.64799257 34.51171875 28.7734375 C34.50532883 27.88570648 34.4989389 26.99797546 34.49235535 26.08334351 C34.37302471 21.01681523 33.88276819 17.35059776 31 13 C26.23273147 10.04429351 22.60426077 9.55087947 17.08203125 10.42578125 C13.95729094 11.28757642 12.1766875 12.62543181 10 15 C7.4935403 19.65731057 7.6543416 24.29902226 7.5859375 29.45703125 C7.56657135 30.35999435 7.5472052 31.26295746 7.5272522 32.19328308 C7.46765918 35.06626047 7.42115231 37.93927837 7.375 40.8125 C7.33680155 42.76499105 7.29774873 44.71746559 7.2578125 46.66992188 C7.16197431 51.44647984 7.07786848 56.22311667 7 61 C2.05 61 -2.9 61 -8 61 C-8.0093457 59.75911621 -8.01869141 58.51823242 -8.02832031 57.23974609 C-8.06829283 52.62122134 -8.13407207 48.00335762 -8.20751953 43.38525391 C-8.23568703 41.38924675 -8.25692252 39.39312894 -8.27099609 37.39697266 C-8.29248403 34.52188636 -8.33916426 31.64812471 -8.390625 28.7734375 C-8.39185364 27.88570648 -8.39308228 26.99797546 -8.39434814 26.08334351 C-8.52332713 20.58619081 -9.31336509 17.34502294 -13 13 C-17.34440676 9.86798582 -20.75873476 9.6282468 -25.8828125 10.421875 C-29.71710624 11.46887772 -32.10044837 13.48527575 -34.10897827 16.86737061 C-35.07315031 19.1750827 -35.27383283 20.81874989 -35.31884766 23.30957031 C-35.33871735 24.15013977 -35.35858704 24.99070923 -35.37905884 25.85675049 C-35.39638565 27.20383087 -35.39638565 27.20383087 -35.4140625 28.578125 C-35.43342865 29.5046991 -35.4527948 30.43127319 -35.4727478 31.38592529 C-35.53244767 34.34052371 -35.57889068 37.29516129 -35.625 40.25 C-35.6631886 42.25522517 -35.70224085 44.26043409 -35.7421875 46.265625 C-35.8381414 51.17695111 -35.92220803 56.088354 -36 61 C-40.95 61 -45.9 61 -51 61 C-51 39.55 -51 18.1 -51 -4 C-46.05 -4 -41.1 -4 -36 -4 C-35.67 -2.35 -35.34 -0.7 -35 1 C-34.54109375 0.65066406 -34.0821875 0.30132812 -33.609375 -0.05859375 C-32.99578125 -0.51363281 -32.3821875 -0.96867188 -31.75 -1.4375 C-31.14671875 -1.88996094 -30.5434375 -2.34242188 -29.921875 -2.80859375 C-20.97660457 -8.35393416 -8.1428076 -5.61408414 0 0 Z " fill="#000000" transform="translate(628,131)"/>
<path d="M0 0 C6.27 0 12.54 0 19 0 C22.24156268 7.15405345 25.2182429 14.3915997 28.125 21.6875 C28.49268494 22.6090387 28.49268494 22.6090387 28.86779785 23.54919434 C33.78790948 35.88496812 38.65807649 48.2407003 43.51312256 60.60220337 C44.33809745 62.70172681 45.16414848 64.80082771 45.99127197 66.89950562 C47.15903413 69.86397596 48.32231126 72.83016707 49.484375 75.796875 C49.84004547 76.69761246 50.19571594 77.59834991 50.56216431 78.52638245 C50.88421844 79.35137741 51.20627258 80.17637238 51.53808594 81.02636719 C51.82165955 81.74862488 52.10523315 82.47088257 52.3973999 83.21502686 C53 85 53 85 53 87 C47.06 87 41.12 87 35 87 C34.01 84.40125 33.02 81.8025 32 79.125 C31.68675781 78.30789551 31.37351562 77.49079102 31.05078125 76.64892578 C29 71.22222222 29 71.22222222 29 69 C16.13 69 3.26 69 -10 69 C-10.99 72.3 -11.98 75.6 -13 79 C-13.99 81.64 -14.98 84.28 -16 87 C-21.94 87 -27.88 87 -34 87 C-23.16445476 57.80422531 -11.61063416 28.89397663 0 0 Z M9 18 C7.14653214 22.9654586 5.29517408 27.93169657 3.44580078 32.89868164 C2.81585258 34.58965514 2.18531974 36.28041096 1.55419922 37.97094727 C0.64919122 40.39543102 -0.25373819 42.82067987 -1.15625 45.24609375 C-1.5827887 46.38672523 -1.5827887 46.38672523 -2.01794434 47.55039978 C-3.39644664 50.69506594 -3.39644664 50.69506594 -4 54 C4.91 54 13.82 54 23 54 C18.81234032 41.93954013 14.54826853 29.92879218 10 18 C9.67 18 9.34 18 9 18 Z " fill="#000000" transform="translate(266,105)"/>
<path d="M0 0 C6.23188105 4.48567274 10.18040277 12.67140978 12.14453125 19.90625 C13.29661075 31.96289592 11.5255818 41.56672095 3.9140625 51.0859375 C-3.34362435 58.55190234 -11.6006726 61.17943838 -21.76171875 61.87109375 C-31.94433542 61.9868053 -40.74347569 58.41286814 -48.25390625 51.60546875 C-55.85730044 43.53845296 -57.33200933 34.45112368 -57.171875 23.63671875 C-56.73211689 18.45191633 -55.36604656 14.43189684 -52.85546875 9.90625 C-52.50484375 9.26171875 -52.15421875 8.6171875 -51.79296875 7.953125 C-47.77413546 1.53415517 -40.53357494 -3.24961875 -33.40234375 -5.6171875 C-21.19398227 -7.90157416 -10.71039166 -6.31349403 0 0 Z M-39.60546875 18.09375 C-42.18486474 23.89739097 -42.7029201 29.67089071 -40.41796875 35.65625 C-37.56094117 41.2903883 -32.79511365 44.92636837 -26.85546875 46.90625 C-20.31239131 47.69348417 -15.29615674 46.66527079 -9.85546875 42.90625 C-5.82094896 39.08981236 -3.75860638 34.34227839 -2.85546875 28.90625 C-3.13906696 22.83175921 -4.66406256 17.41201166 -8.85546875 12.90625 C-20.87739237 5.11885274 -30.7444774 7.01751082 -39.60546875 18.09375 Z " fill="#000000" transform="translate(506.85546875,132.09375)"/>
<path d="M0 0 C0 4.62 0 9.24 0 14 C-2.475 13.505 -2.475 13.505 -5 13 C-8.83713356 12.56412449 -12.00737914 12.41460821 -15.4375 14.4375 C-17.75379007 18.23621572 -17.73979921 21.57658659 -18 26 C-12.39 26 -6.78 26 -1 26 C-1 30.29 -1 34.58 -1 39 C-6.61 39 -12.22 39 -18 39 C-18 55.83 -18 72.66 -18 90 C-22.95 90 -27.9 90 -33 90 C-33 73.17 -33 56.34 -33 39 C-36.63 39 -40.26 39 -44 39 C-44 34.71 -44 30.42 -44 26 C-40.37 26 -36.74 26 -33 26 C-33.03480469 25.14277344 -33.06960938 24.28554687 -33.10546875 23.40234375 C-33.30357728 15.03461677 -32.67529257 10.35973605 -28.3125 3.25 C-20.63561261 -4.21940395 -9.39589988 -3.13196663 0 0 Z " fill="#000000" transform="translate(445,102)"/>
<path d="M0 0 C2.3821875 0.0309375 2.3821875 0.0309375 4.8125 0.0625 C4.8125 5.0125 4.8125 9.9625 4.8125 15.0625 C3.12125 15.31 1.43 15.5575 -0.3125 15.8125 C-5.13352141 16.70986599 -8.46796291 17.70584457 -12.1875 21.0625 C-15.89203635 26.46715088 -16.78657776 30.35963067 -16.796875 36.83984375 C-16.81341125 37.65119278 -16.82994751 38.46254181 -16.84698486 39.29847717 C-16.89520084 41.86573046 -16.916776 44.43239263 -16.9375 47 C-16.96568192 48.75068036 -16.99561244 50.5013335 -17.02734375 52.25195312 C-17.10095206 56.52208668 -17.15068719 60.79189716 -17.1875 65.0625 C-22.1375 65.0625 -27.0875 65.0625 -32.1875 65.0625 C-32.1875 43.9425 -32.1875 22.8225 -32.1875 1.0625 C-27.2375 1.0625 -22.2875 1.0625 -17.1875 1.0625 C-16.8575 3.0425 -16.5275 5.0225 -16.1875 7.0625 C-15.64480469 6.64097656 -15.10210938 6.21945313 -14.54296875 5.78515625 C-13.82753906 5.23730469 -13.11210938 4.68945312 -12.375 4.125 C-11.66730469 3.57972656 -10.95960938 3.03445312 -10.23046875 2.47265625 C-6.81082873 0.11225463 -4.03701868 -0.05242881 0 0 Z " fill="#000000" transform="translate(563.1875,126.9375)"/>
<path d="M0 0 C2.3821875 0.0309375 2.3821875 0.0309375 4.8125 0.0625 C4.8125 5.0125 4.8125 9.9625 4.8125 15.0625 C3.12125 15.31 1.43 15.5575 -0.3125 15.8125 C-5.13352141 16.70986599 -8.46796291 17.70584457 -12.1875 21.0625 C-15.89203635 26.46715088 -16.78657776 30.35963067 -16.796875 36.83984375 C-16.81341125 37.65119278 -16.82994751 38.46254181 -16.84698486 39.29847717 C-16.89520084 41.86573046 -16.916776 44.43239263 -16.9375 47 C-16.96568192 48.75068036 -16.99561244 50.5013335 -17.02734375 52.25195312 C-17.10095206 56.52208668 -17.15068719 60.79189716 -17.1875 65.0625 C-22.1375 65.0625 -27.0875 65.0625 -32.1875 65.0625 C-32.1875 43.9425 -32.1875 22.8225 -32.1875 1.0625 C-27.2375 1.0625 -22.2875 1.0625 -17.1875 1.0625 C-16.8575 3.0425 -16.5275 5.0225 -16.1875 7.0625 C-15.64480469 6.64097656 -15.10210937 6.21945313 -14.54296875 5.78515625 C-13.82753906 5.23730469 -13.11210937 4.68945312 -12.375 4.125 C-11.66730469 3.57972656 -10.95960938 3.03445312 -10.23046875 2.47265625 C-6.81082873 0.11225463 -4.03701868 -0.05242881 0 0 Z " fill="#000000" transform="translate(391.1875,126.9375)"/>
<path d="M0 0 C4.95 0 9.9 0 15 0 C15 21.12 15 42.24 15 64 C10.05 64 5.1 64 0 64 C0 42.88 0 21.76 0 0 Z " fill="#000000" transform="translate(329,128)"/>
<path d="M0 0 C1.9375 1.0625 1.9375 1.0625 3 3 C4.53078556 9.77919321 4.53078556 9.77919321 2.75 13.875 C0.25681976 16.90243315 -1.4086156 17.92189263 -5.3125 18.4375 C-10.09673552 17.86987884 -11.88132869 16.65112739 -15 13 C-15.74668825 10.17284448 -15.68186893 7.83634556 -15 5 C-11.04508409 -1.4096913 -6.80451276 -1.54841731 0 0 Z " fill="#000000" transform="translate(342,100)"/>
</svg>
