<?xml version="1.0" encoding="UTF-8"?>
<svg id="Layer_1" data-name="Layer 1" xmlns="http://www.w3.org/2000/svg" viewBox="0 0 561.4 194.1">
  <path d="m166.86,54.97l-6-10.39-37.3,21.54c-10.71,6.19-24.02,6.19-34.73,0l-37.3-21.54-6,10.39,38.28,22.1h-44.2v12h44.2l-38.28,22.1,6,10.39,38.28-22.1-22.1,38.28,10.39,6,22.1-38.28v44.2h12v-43.07c0-12.37,6.65-23.89,17.36-30.08l37.31-21.54Z"/>
  <g>
    <path d="m202.26,149.66l-5.68-14.99h-32.02l-5.73,14.99h-13.05l27.74-70.37h14.39l27.74,70.37h-13.4Zm-33.42-26.2h23.46l-11.75-30.93-11.7,30.93Z"/>
    <path d="m229.61,88.85c-2.06,0-3.79-.7-5.18-2.09s-2.09-3.1-2.09-5.13.7-3.82,2.09-5.18c1.39-1.36,3.12-2.04,5.18-2.04s3.83.68,5.23,2.04c1.39,1.36,2.09,3.09,2.09,5.18s-.7,3.78-2.09,5.16-3.14,2.07-5.23,2.07Zm-5.73,60.81v-52h11.46v52h-11.46Z"/>
    <path d="m276.47,96.81h1.94v11.75h-1.94c-5.05,0-9.01,1.42-11.88,4.26s-4.31,6.68-4.31,11.53v25.3h-11.46v-52h11.46v7.62c4.15-5.64,9.54-8.47,16.19-8.47Z"/>
    <path d="m312.48,85.51c-5.11,0-7.67,2.38-7.67,7.12v5.03h13.85v10.36h-13.85v41.64h-11.41v-41.64h-8.82v-10.36h8.82v-5.73c0-5.34,1.39-9.5,4.18-12.48s6.92-4.46,12.4-4.46c3.45,0,6.59.71,9.41,2.14v10.11c-2.06-1.16-4.37-1.74-6.92-1.74Z"/>
    <path d="m349.79,150.9c-7.94,0-14.56-2.61-19.87-7.82-5.31-5.21-7.97-11.69-7.97-19.42s2.66-14.21,7.97-19.42c5.31-5.21,11.94-7.82,19.87-7.82,5.18,0,9.9,1.19,14.17,3.56s7.61,5.64,10.04,9.81c2.42,4.17,3.64,8.79,3.64,13.87s-1.21,9.7-3.64,13.87c-2.42,4.17-5.77,7.44-10.04,9.81-4.27,2.37-8.99,3.56-14.17,3.56Zm-11.5-15.71c3.09,3.1,6.92,4.66,11.5,4.66s8.39-1.55,11.43-4.66c3.04-3.1,4.56-6.95,4.56-11.53s-1.52-8.47-4.56-11.58c-3.04-3.1-6.85-4.66-11.43-4.66s-8.42,1.56-11.5,4.68c-3.09,3.12-4.63,6.97-4.63,11.55s1.54,8.43,4.63,11.53Z"/>
    <path d="m415.53,96.81h1.94v11.75h-1.94c-5.05,0-9.01,1.42-11.88,4.26s-4.31,6.68-4.31,11.53v25.3h-11.46v-52h11.46v7.62c4.15-5.64,9.54-8.47,16.19-8.47Z"/>
    <path d="m488.44,96.42c5.91,0,10.63,1.78,14.17,5.33,3.54,3.55,5.3,8.27,5.3,14.14v33.77h-11.46v-30.38c0-3.59-1.05-6.46-3.14-8.62-2.09-2.16-4.88-3.24-8.37-3.24-3.69,0-6.67,1.11-8.94,3.34-2.27,2.23-3.41,5.13-3.41,8.72v30.18h-11.41v-30.38c0-3.59-1.05-6.46-3.16-8.62-2.11-2.16-4.91-3.24-8.39-3.24s-6.62,1.1-8.89,3.31-3.41,5.12-3.41,8.74v30.18h-11.46v-52h11.46v6.08c3.95-4.88,9.31-7.32,16.09-7.32,3.79,0,7.12.81,10.01,2.42s5.13,3.86,6.72,6.75c4.22-6.11,10.31-9.16,18.28-9.16Z"/>
  </g>
</svg>